<mxfile host="app.diagrams.net" modified="2024-06-16T14:19:33.801Z" agent="Mozilla/5.0 (Windows NT 10.0; Win64; x64) AppleWebKit/537.36 (KHTML, like Gecko) Chrome/125.0.0.0 Safari/537.36" etag="Um6UauVcitD2e50jkJZu" version="24.5.4" type="device">
  <diagram name="Page-1" id="gwitRV9jFqSz_QylvDJV">
    <mxGraphModel dx="2216" dy="743" grid="1" gridSize="10" guides="1" tooltips="1" connect="1" arrows="1" fold="1" page="1" pageScale="1" pageWidth="850" pageHeight="1100" math="0" shadow="0">
      <root>
        <mxCell id="0" />
        <mxCell id="1" parent="0" />
        <mxCell id="uaf8l5krwzGRUjpjPeg9-24" style="edgeStyle=orthogonalEdgeStyle;rounded=0;orthogonalLoop=1;jettySize=auto;html=1;entryX=0;entryY=0.5;entryDx=0;entryDy=0;" edge="1" parent="1" source="uaf8l5krwzGRUjpjPeg9-17" target="K9GchK6eYrQeb1Zm0STE-67">
          <mxGeometry relative="1" as="geometry" />
        </mxCell>
        <mxCell id="uaf8l5krwzGRUjpjPeg9-17" value="" style="whiteSpace=wrap;html=1;imageAspect=0;fillColor=none;" vertex="1" parent="1">
          <mxGeometry x="-330" y="330" width="190" height="270" as="geometry" />
        </mxCell>
        <mxCell id="K9GchK6eYrQeb1Zm0STE-19" style="edgeStyle=orthogonalEdgeStyle;rounded=0;orthogonalLoop=1;jettySize=auto;html=1;exitX=0.5;exitY=1;exitDx=0;exitDy=0;entryX=0.5;entryY=1;entryDx=0;entryDy=0;" parent="1" target="K9GchK6eYrQeb1Zm0STE-13" edge="1">
          <mxGeometry relative="1" as="geometry">
            <mxPoint x="229" y="600" as="sourcePoint" />
          </mxGeometry>
        </mxCell>
        <mxCell id="K9GchK6eYrQeb1Zm0STE-6" value="Client 1" style="text;html=1;align=center;verticalAlign=middle;whiteSpace=wrap;rounded=0;" parent="1" vertex="1">
          <mxGeometry x="-200" y="570" width="60" height="30" as="geometry" />
        </mxCell>
        <mxCell id="K9GchK6eYrQeb1Zm0STE-7" value="Client 2" style="text;html=1;align=center;verticalAlign=middle;whiteSpace=wrap;rounded=0;" parent="1" vertex="1">
          <mxGeometry x="264" y="570" width="60" height="30" as="geometry" />
        </mxCell>
        <mxCell id="K9GchK6eYrQeb1Zm0STE-30" value="VD" style="rounded=1;whiteSpace=wrap;html=1;fillColor=#dae8fc;strokeColor=#6c8ebf;" parent="1" vertex="1">
          <mxGeometry x="-382" y="455" width="40" height="20" as="geometry" />
        </mxCell>
        <mxCell id="K9GchK6eYrQeb1Zm0STE-31" value="VH" style="rounded=1;whiteSpace=wrap;html=1;fillColor=#dae8fc;strokeColor=#6c8ebf;" parent="1" vertex="1">
          <mxGeometry x="-422" y="455" width="40" height="20" as="geometry" />
        </mxCell>
        <mxCell id="K9GchK6eYrQeb1Zm0STE-32" value="TH" style="rounded=1;whiteSpace=wrap;html=1;fillColor=#fff2cc;strokeColor=#d6b656;" parent="1" vertex="1">
          <mxGeometry x="-462" y="455" width="40" height="20" as="geometry" />
        </mxCell>
        <mxCell id="uaf8l5krwzGRUjpjPeg9-2" value="" style="group" vertex="1" connectable="0" parent="1">
          <mxGeometry x="-622" y="550" width="382" height="20" as="geometry" />
        </mxCell>
        <mxCell id="K9GchK6eYrQeb1Zm0STE-33" value="VD" style="rounded=1;whiteSpace=wrap;html=1;fillColor=#dae8fc;strokeColor=#6c8ebf;" parent="uaf8l5krwzGRUjpjPeg9-2" vertex="1">
          <mxGeometry x="120" width="40" height="20" as="geometry" />
        </mxCell>
        <mxCell id="K9GchK6eYrQeb1Zm0STE-34" value="VH" style="rounded=1;whiteSpace=wrap;html=1;fillColor=#dae8fc;strokeColor=#6c8ebf;" parent="uaf8l5krwzGRUjpjPeg9-2" vertex="1">
          <mxGeometry x="80" width="40" height="20" as="geometry" />
        </mxCell>
        <mxCell id="K9GchK6eYrQeb1Zm0STE-35" value="TH" style="rounded=1;whiteSpace=wrap;html=1;fillColor=#fff2cc;strokeColor=#d6b656;" parent="uaf8l5krwzGRUjpjPeg9-2" vertex="1">
          <mxGeometry x="40" width="40" height="20" as="geometry" />
        </mxCell>
        <mxCell id="K9GchK6eYrQeb1Zm0STE-37" value="NH" style="rounded=1;whiteSpace=wrap;html=1;" parent="uaf8l5krwzGRUjpjPeg9-2" vertex="1">
          <mxGeometry width="40" height="20" as="geometry" />
        </mxCell>
        <mxCell id="K9GchK6eYrQeb1Zm0STE-60" value="TH" style="rounded=1;whiteSpace=wrap;html=1;fillColor=#fff2cc;strokeColor=#d6b656;" parent="uaf8l5krwzGRUjpjPeg9-2" vertex="1">
          <mxGeometry x="160" width="40" height="20" as="geometry" />
        </mxCell>
        <mxCell id="K9GchK6eYrQeb1Zm0STE-61" value="AD" style="rounded=1;whiteSpace=wrap;html=1;fillColor=#d5e8d4;strokeColor=#82b366;" parent="uaf8l5krwzGRUjpjPeg9-2" vertex="1">
          <mxGeometry x="240" width="40" height="20" as="geometry" />
        </mxCell>
        <mxCell id="K9GchK6eYrQeb1Zm0STE-62" value="AH" style="rounded=1;whiteSpace=wrap;html=1;fillColor=#d5e8d4;strokeColor=#82b366;" parent="uaf8l5krwzGRUjpjPeg9-2" vertex="1">
          <mxGeometry x="200" width="40" height="20" as="geometry" />
        </mxCell>
        <mxCell id="uaf8l5krwzGRUjpjPeg9-3" value="" style="group" vertex="1" connectable="0" parent="1">
          <mxGeometry x="-330" y="370" width="180" height="180" as="geometry" />
        </mxCell>
        <mxCell id="K9GchK6eYrQeb1Zm0STE-15" style="edgeStyle=orthogonalEdgeStyle;rounded=0;orthogonalLoop=1;jettySize=auto;html=1;" parent="uaf8l5krwzGRUjpjPeg9-3" source="K9GchK6eYrQeb1Zm0STE-4" target="K9GchK6eYrQeb1Zm0STE-12" edge="1">
          <mxGeometry relative="1" as="geometry" />
        </mxCell>
        <mxCell id="K9GchK6eYrQeb1Zm0STE-4" value="&lt;font style=&quot;font-size: 10px;&quot;&gt;TL&lt;/font&gt;" style="whiteSpace=wrap;html=1;aspect=fixed;fillColor=#fff2cc;strokeColor=#d6b656;" parent="uaf8l5krwzGRUjpjPeg9-3" vertex="1">
          <mxGeometry x="75" y="60" width="40" height="40" as="geometry" />
        </mxCell>
        <mxCell id="K9GchK6eYrQeb1Zm0STE-52" style="edgeStyle=orthogonalEdgeStyle;rounded=0;orthogonalLoop=1;jettySize=auto;html=1;entryX=1;entryY=0.5;entryDx=0;entryDy=0;exitX=0.5;exitY=1;exitDx=0;exitDy=0;" parent="uaf8l5krwzGRUjpjPeg9-3" source="K9GchK6eYrQeb1Zm0STE-5" target="K9GchK6eYrQeb1Zm0STE-4" edge="1">
          <mxGeometry relative="1" as="geometry" />
        </mxCell>
        <mxCell id="K9GchK6eYrQeb1Zm0STE-5" value="&lt;font style=&quot;font-size: 10px;&quot;&gt;Audio Process&lt;/font&gt;" style="whiteSpace=wrap;html=1;aspect=fixed;fillColor=#d5e8d4;strokeColor=#82b366;" parent="uaf8l5krwzGRUjpjPeg9-3" vertex="1">
          <mxGeometry x="140" width="40" height="40" as="geometry" />
        </mxCell>
        <mxCell id="K9GchK6eYrQeb1Zm0STE-14" style="edgeStyle=orthogonalEdgeStyle;rounded=0;orthogonalLoop=1;jettySize=auto;html=1;entryX=0;entryY=0.5;entryDx=0;entryDy=0;exitX=0.5;exitY=1;exitDx=0;exitDy=0;" parent="uaf8l5krwzGRUjpjPeg9-3" source="K9GchK6eYrQeb1Zm0STE-10" target="K9GchK6eYrQeb1Zm0STE-4" edge="1">
          <mxGeometry relative="1" as="geometry" />
        </mxCell>
        <mxCell id="K9GchK6eYrQeb1Zm0STE-10" value="&lt;font style=&quot;font-size: 10px;&quot;&gt;Video Process&lt;/font&gt;" style="whiteSpace=wrap;html=1;aspect=fixed;fillColor=#dae8fc;strokeColor=#6c8ebf;" parent="uaf8l5krwzGRUjpjPeg9-3" vertex="1">
          <mxGeometry x="10" width="40" height="40" as="geometry" />
        </mxCell>
        <mxCell id="K9GchK6eYrQeb1Zm0STE-12" value="&lt;font style=&quot;font-size: 10px;&quot;&gt;NL&lt;/font&gt;" style="whiteSpace=wrap;html=1;aspect=fixed;fillColor=#f5f5f5;fontColor=#333333;strokeColor=#666666;" parent="uaf8l5krwzGRUjpjPeg9-3" vertex="1">
          <mxGeometry x="75" y="140" width="40" height="40" as="geometry" />
        </mxCell>
        <mxCell id="K9GchK6eYrQeb1Zm0STE-24" value="" style="endArrow=classic;html=1;rounded=0;exitX=0.5;exitY=1;exitDx=0;exitDy=0;" parent="uaf8l5krwzGRUjpjPeg9-3" source="K9GchK6eYrQeb1Zm0STE-12" edge="1">
          <mxGeometry width="50" height="50" relative="1" as="geometry">
            <mxPoint x="40" y="290" as="sourcePoint" />
            <mxPoint x="95" y="230" as="targetPoint" />
          </mxGeometry>
        </mxCell>
        <mxCell id="uaf8l5krwzGRUjpjPeg9-4" value="" style="group" vertex="1" connectable="0" parent="1">
          <mxGeometry x="134" y="360" width="190" height="240" as="geometry" />
        </mxCell>
        <mxCell id="uaf8l5krwzGRUjpjPeg9-18" value="" style="whiteSpace=wrap;html=1;imageAspect=0;fillColor=none;" vertex="1" parent="uaf8l5krwzGRUjpjPeg9-4">
          <mxGeometry y="-30" width="190" height="270" as="geometry" />
        </mxCell>
        <mxCell id="K9GchK6eYrQeb1Zm0STE-8" value="&lt;font style=&quot;font-size: 10px;&quot;&gt;Video Process&lt;/font&gt;" style="whiteSpace=wrap;html=1;aspect=fixed;fillColor=#dae8fc;strokeColor=#6c8ebf;" parent="uaf8l5krwzGRUjpjPeg9-4" vertex="1">
          <mxGeometry x="9" y="10" width="40" height="40" as="geometry" />
        </mxCell>
        <mxCell id="K9GchK6eYrQeb1Zm0STE-9" value="&lt;font style=&quot;font-size: 10px;&quot;&gt;Audio Process&lt;/font&gt;" style="whiteSpace=wrap;html=1;aspect=fixed;fillColor=#d5e8d4;strokeColor=#82b366;" parent="uaf8l5krwzGRUjpjPeg9-4" vertex="1">
          <mxGeometry x="139" y="10" width="40" height="40" as="geometry" />
        </mxCell>
        <mxCell id="K9GchK6eYrQeb1Zm0STE-26" style="edgeStyle=orthogonalEdgeStyle;rounded=0;orthogonalLoop=1;jettySize=auto;html=1;entryX=0.5;entryY=1;entryDx=0;entryDy=0;" parent="uaf8l5krwzGRUjpjPeg9-4" source="K9GchK6eYrQeb1Zm0STE-11" target="K9GchK6eYrQeb1Zm0STE-8" edge="1">
          <mxGeometry relative="1" as="geometry" />
        </mxCell>
        <mxCell id="K9GchK6eYrQeb1Zm0STE-85" style="edgeStyle=orthogonalEdgeStyle;rounded=0;orthogonalLoop=1;jettySize=auto;html=1;exitX=1;exitY=0.5;exitDx=0;exitDy=0;" parent="uaf8l5krwzGRUjpjPeg9-4" source="K9GchK6eYrQeb1Zm0STE-11" target="K9GchK6eYrQeb1Zm0STE-9" edge="1">
          <mxGeometry relative="1" as="geometry" />
        </mxCell>
        <mxCell id="K9GchK6eYrQeb1Zm0STE-11" value="&lt;font style=&quot;font-size: 10px;&quot;&gt;TL&lt;/font&gt;" style="whiteSpace=wrap;html=1;aspect=fixed;fillColor=#fff2cc;strokeColor=#d6b656;" parent="uaf8l5krwzGRUjpjPeg9-4" vertex="1">
          <mxGeometry x="75" y="70" width="40" height="40" as="geometry" />
        </mxCell>
        <mxCell id="K9GchK6eYrQeb1Zm0STE-25" style="edgeStyle=orthogonalEdgeStyle;rounded=0;orthogonalLoop=1;jettySize=auto;html=1;" parent="uaf8l5krwzGRUjpjPeg9-4" source="K9GchK6eYrQeb1Zm0STE-13" target="K9GchK6eYrQeb1Zm0STE-11" edge="1">
          <mxGeometry relative="1" as="geometry" />
        </mxCell>
        <mxCell id="K9GchK6eYrQeb1Zm0STE-13" value="&lt;font style=&quot;font-size: 10px;&quot;&gt;NL&lt;/font&gt;" style="whiteSpace=wrap;html=1;aspect=fixed;fillColor=#f5f5f5;fontColor=#333333;strokeColor=#666666;" parent="uaf8l5krwzGRUjpjPeg9-4" vertex="1">
          <mxGeometry x="75" y="150" width="40" height="40" as="geometry" />
        </mxCell>
        <mxCell id="K9GchK6eYrQeb1Zm0STE-22" value="" style="endArrow=classic;html=1;rounded=0;entryX=0.5;entryY=1;entryDx=0;entryDy=0;" parent="uaf8l5krwzGRUjpjPeg9-4" source="uaf8l5krwzGRUjpjPeg9-18" target="K9GchK6eYrQeb1Zm0STE-13" edge="1">
          <mxGeometry width="50" height="50" relative="1" as="geometry">
            <mxPoint x="96" y="240" as="sourcePoint" />
            <mxPoint x="138" y="190" as="targetPoint" />
          </mxGeometry>
        </mxCell>
        <mxCell id="uaf8l5krwzGRUjpjPeg9-9" value="" style="group" vertex="1" connectable="0" parent="1">
          <mxGeometry x="-422" y="380" width="80" height="20" as="geometry" />
        </mxCell>
        <mxCell id="K9GchK6eYrQeb1Zm0STE-27" value="VD" style="rounded=1;whiteSpace=wrap;html=1;fillColor=#dae8fc;strokeColor=#6c8ebf;" parent="uaf8l5krwzGRUjpjPeg9-9" vertex="1">
          <mxGeometry x="40" width="40" height="20" as="geometry" />
        </mxCell>
        <mxCell id="K9GchK6eYrQeb1Zm0STE-28" value="VH" style="rounded=1;whiteSpace=wrap;html=1;fillColor=#dae8fc;strokeColor=#6c8ebf;" parent="uaf8l5krwzGRUjpjPeg9-9" vertex="1">
          <mxGeometry width="40" height="20" as="geometry" />
        </mxCell>
        <mxCell id="uaf8l5krwzGRUjpjPeg9-15" value="" style="group" vertex="1" connectable="0" parent="1">
          <mxGeometry x="-130" y="380" width="80" height="20" as="geometry" />
        </mxCell>
        <mxCell id="K9GchK6eYrQeb1Zm0STE-54" value="AD" style="rounded=1;whiteSpace=wrap;html=1;fillColor=#d5e8d4;strokeColor=#82b366;" parent="uaf8l5krwzGRUjpjPeg9-15" vertex="1">
          <mxGeometry x="40" width="40" height="20" as="geometry" />
        </mxCell>
        <mxCell id="K9GchK6eYrQeb1Zm0STE-55" value="AH" style="rounded=1;whiteSpace=wrap;html=1;fillColor=#d5e8d4;strokeColor=#82b366;" parent="uaf8l5krwzGRUjpjPeg9-15" vertex="1">
          <mxGeometry x="-1" width="40" height="20" as="geometry" />
        </mxCell>
        <mxCell id="uaf8l5krwzGRUjpjPeg9-13" value="" style="group" vertex="1" connectable="0" parent="uaf8l5krwzGRUjpjPeg9-15">
          <mxGeometry x="468" width="80" height="20" as="geometry" />
        </mxCell>
        <mxCell id="K9GchK6eYrQeb1Zm0STE-86" value="AD" style="rounded=1;whiteSpace=wrap;html=1;fillColor=#d5e8d4;strokeColor=#82b366;" parent="uaf8l5krwzGRUjpjPeg9-13" vertex="1">
          <mxGeometry x="40" width="40" height="20" as="geometry" />
        </mxCell>
        <mxCell id="K9GchK6eYrQeb1Zm0STE-87" value="AH" style="rounded=1;whiteSpace=wrap;html=1;fillColor=#d5e8d4;strokeColor=#82b366;" parent="uaf8l5krwzGRUjpjPeg9-13" vertex="1">
          <mxGeometry width="40" height="20" as="geometry" />
        </mxCell>
        <mxCell id="uaf8l5krwzGRUjpjPeg9-10" value="" style="group" vertex="1" connectable="0" parent="1">
          <mxGeometry x="338" y="550" width="280" height="20" as="geometry" />
        </mxCell>
        <mxCell id="K9GchK6eYrQeb1Zm0STE-71" value="VD" style="rounded=1;whiteSpace=wrap;html=1;fillColor=#dae8fc;strokeColor=#6c8ebf;" parent="uaf8l5krwzGRUjpjPeg9-10" vertex="1">
          <mxGeometry x="120" width="40" height="20" as="geometry" />
        </mxCell>
        <mxCell id="K9GchK6eYrQeb1Zm0STE-72" value="VH" style="rounded=1;whiteSpace=wrap;html=1;fillColor=#dae8fc;strokeColor=#6c8ebf;" parent="uaf8l5krwzGRUjpjPeg9-10" vertex="1">
          <mxGeometry x="80" width="40" height="20" as="geometry" />
        </mxCell>
        <mxCell id="K9GchK6eYrQeb1Zm0STE-73" value="TH" style="rounded=1;whiteSpace=wrap;html=1;fillColor=#fff2cc;strokeColor=#d6b656;" parent="uaf8l5krwzGRUjpjPeg9-10" vertex="1">
          <mxGeometry x="40" width="40" height="20" as="geometry" />
        </mxCell>
        <mxCell id="K9GchK6eYrQeb1Zm0STE-74" value="NH" style="rounded=1;whiteSpace=wrap;html=1;" parent="uaf8l5krwzGRUjpjPeg9-10" vertex="1">
          <mxGeometry width="40" height="20" as="geometry" />
        </mxCell>
        <mxCell id="K9GchK6eYrQeb1Zm0STE-75" value="TH" style="rounded=1;whiteSpace=wrap;html=1;fillColor=#fff2cc;strokeColor=#d6b656;" parent="uaf8l5krwzGRUjpjPeg9-10" vertex="1">
          <mxGeometry x="160" width="40" height="20" as="geometry" />
        </mxCell>
        <mxCell id="K9GchK6eYrQeb1Zm0STE-76" value="AD" style="rounded=1;whiteSpace=wrap;html=1;fillColor=#d5e8d4;strokeColor=#82b366;" parent="uaf8l5krwzGRUjpjPeg9-10" vertex="1">
          <mxGeometry x="240" width="40" height="20" as="geometry" />
        </mxCell>
        <mxCell id="K9GchK6eYrQeb1Zm0STE-77" value="AH" style="rounded=1;whiteSpace=wrap;html=1;fillColor=#d5e8d4;strokeColor=#82b366;" parent="uaf8l5krwzGRUjpjPeg9-10" vertex="1">
          <mxGeometry x="200" width="40" height="20" as="geometry" />
        </mxCell>
        <mxCell id="uaf8l5krwzGRUjpjPeg9-22" value="" style="group" vertex="1" connectable="0" parent="1">
          <mxGeometry x="-140" y="640" width="280" height="100" as="geometry" />
        </mxCell>
        <mxCell id="uaf8l5krwzGRUjpjPeg9-20" value="" style="ellipse;shape=cloud;whiteSpace=wrap;html=1;fillColor=#f5f5f5;fontColor=#333333;strokeColor=#666666;" vertex="1" parent="uaf8l5krwzGRUjpjPeg9-22">
          <mxGeometry x="70" width="130" height="100" as="geometry" />
        </mxCell>
        <mxCell id="uaf8l5krwzGRUjpjPeg9-21" value="" style="group" vertex="1" connectable="0" parent="uaf8l5krwzGRUjpjPeg9-22">
          <mxGeometry y="40" width="280" height="20" as="geometry" />
        </mxCell>
        <mxCell id="K9GchK6eYrQeb1Zm0STE-64" value="VD" style="rounded=1;whiteSpace=wrap;html=1;fillColor=#dae8fc;strokeColor=#6c8ebf;" parent="uaf8l5krwzGRUjpjPeg9-21" vertex="1">
          <mxGeometry x="120" width="40" height="20" as="geometry" />
        </mxCell>
        <mxCell id="K9GchK6eYrQeb1Zm0STE-65" value="VH" style="rounded=1;whiteSpace=wrap;html=1;fillColor=#dae8fc;strokeColor=#6c8ebf;" parent="uaf8l5krwzGRUjpjPeg9-21" vertex="1">
          <mxGeometry x="80" width="40" height="20" as="geometry" />
        </mxCell>
        <mxCell id="K9GchK6eYrQeb1Zm0STE-66" value="TH" style="rounded=1;whiteSpace=wrap;html=1;fillColor=#fff2cc;strokeColor=#d6b656;" parent="uaf8l5krwzGRUjpjPeg9-21" vertex="1">
          <mxGeometry x="40" width="40" height="20" as="geometry" />
        </mxCell>
        <mxCell id="K9GchK6eYrQeb1Zm0STE-67" value="NH" style="rounded=1;whiteSpace=wrap;html=1;" parent="uaf8l5krwzGRUjpjPeg9-21" vertex="1">
          <mxGeometry width="40" height="20" as="geometry" />
        </mxCell>
        <mxCell id="K9GchK6eYrQeb1Zm0STE-68" value="TH" style="rounded=1;whiteSpace=wrap;html=1;fillColor=#fff2cc;strokeColor=#d6b656;" parent="uaf8l5krwzGRUjpjPeg9-21" vertex="1">
          <mxGeometry x="160" width="40" height="20" as="geometry" />
        </mxCell>
        <mxCell id="K9GchK6eYrQeb1Zm0STE-69" value="AD" style="rounded=1;whiteSpace=wrap;html=1;fillColor=#d5e8d4;strokeColor=#82b366;" parent="uaf8l5krwzGRUjpjPeg9-21" vertex="1">
          <mxGeometry x="240" width="40" height="20" as="geometry" />
        </mxCell>
        <mxCell id="K9GchK6eYrQeb1Zm0STE-70" value="AH" style="rounded=1;whiteSpace=wrap;html=1;fillColor=#d5e8d4;strokeColor=#82b366;" parent="uaf8l5krwzGRUjpjPeg9-21" vertex="1">
          <mxGeometry x="200" width="40" height="20" as="geometry" />
        </mxCell>
        <mxCell id="uaf8l5krwzGRUjpjPeg9-25" value="Network" style="text;html=1;align=center;verticalAlign=middle;whiteSpace=wrap;rounded=0;" vertex="1" parent="1">
          <mxGeometry x="-30" y="740" width="60" height="30" as="geometry" />
        </mxCell>
        <mxCell id="uaf8l5krwzGRUjpjPeg9-26" style="edgeStyle=orthogonalEdgeStyle;rounded=0;orthogonalLoop=1;jettySize=auto;html=1;entryX=0.5;entryY=1;entryDx=0;entryDy=0;" edge="1" parent="1" source="K9GchK6eYrQeb1Zm0STE-69" target="uaf8l5krwzGRUjpjPeg9-18">
          <mxGeometry relative="1" as="geometry">
            <Array as="points">
              <mxPoint x="229" y="690" />
            </Array>
          </mxGeometry>
        </mxCell>
        <mxCell id="uaf8l5krwzGRUjpjPeg9-27" value="Multiplexing" style="text;html=1;align=center;verticalAlign=middle;whiteSpace=wrap;rounded=0;" vertex="1" parent="1">
          <mxGeometry x="-330" y="280" width="190" height="30" as="geometry" />
        </mxCell>
        <mxCell id="uaf8l5krwzGRUjpjPeg9-28" value="Demultiplexing" style="text;html=1;align=center;verticalAlign=middle;whiteSpace=wrap;rounded=0;" vertex="1" parent="1">
          <mxGeometry x="134" y="270" width="190" height="30" as="geometry" />
        </mxCell>
        <mxCell id="uaf8l5krwzGRUjpjPeg9-11" value="" style="group" vertex="1" connectable="0" parent="1">
          <mxGeometry x="498" y="455" width="120" height="20" as="geometry" />
        </mxCell>
        <mxCell id="K9GchK6eYrQeb1Zm0STE-82" value="TH" style="rounded=1;whiteSpace=wrap;html=1;fillColor=#fff2cc;strokeColor=#d6b656;" parent="uaf8l5krwzGRUjpjPeg9-11" vertex="1">
          <mxGeometry width="40" height="20" as="geometry" />
        </mxCell>
        <mxCell id="K9GchK6eYrQeb1Zm0STE-83" value="AD" style="rounded=1;whiteSpace=wrap;html=1;fillColor=#d5e8d4;strokeColor=#82b366;" parent="uaf8l5krwzGRUjpjPeg9-11" vertex="1">
          <mxGeometry x="80" width="40" height="20" as="geometry" />
        </mxCell>
        <mxCell id="K9GchK6eYrQeb1Zm0STE-84" value="AH" style="rounded=1;whiteSpace=wrap;html=1;fillColor=#d5e8d4;strokeColor=#82b366;" parent="uaf8l5krwzGRUjpjPeg9-11" vertex="1">
          <mxGeometry x="40" width="40" height="20" as="geometry" />
        </mxCell>
        <mxCell id="uaf8l5krwzGRUjpjPeg9-12" value="" style="group" vertex="1" connectable="0" parent="1">
          <mxGeometry x="338" y="455" width="120" height="20" as="geometry" />
        </mxCell>
        <mxCell id="K9GchK6eYrQeb1Zm0STE-78" value="VD" style="rounded=1;whiteSpace=wrap;html=1;fillColor=#dae8fc;strokeColor=#6c8ebf;" parent="uaf8l5krwzGRUjpjPeg9-12" vertex="1">
          <mxGeometry x="80" width="40" height="20" as="geometry" />
        </mxCell>
        <mxCell id="K9GchK6eYrQeb1Zm0STE-79" value="VH" style="rounded=1;whiteSpace=wrap;html=1;fillColor=#dae8fc;strokeColor=#6c8ebf;" parent="uaf8l5krwzGRUjpjPeg9-12" vertex="1">
          <mxGeometry x="40" width="40" height="20" as="geometry" />
        </mxCell>
        <mxCell id="K9GchK6eYrQeb1Zm0STE-80" value="TH" style="rounded=1;whiteSpace=wrap;html=1;fillColor=#fff2cc;strokeColor=#d6b656;" parent="uaf8l5krwzGRUjpjPeg9-12" vertex="1">
          <mxGeometry width="40" height="20" as="geometry" />
        </mxCell>
        <mxCell id="uaf8l5krwzGRUjpjPeg9-29" value="" style="group" vertex="1" connectable="0" parent="1">
          <mxGeometry x="-131" y="455" width="120" height="20" as="geometry" />
        </mxCell>
        <mxCell id="K9GchK6eYrQeb1Zm0STE-57" value="TH" style="rounded=1;whiteSpace=wrap;html=1;fillColor=#fff2cc;strokeColor=#d6b656;" parent="uaf8l5krwzGRUjpjPeg9-29" vertex="1">
          <mxGeometry width="40" height="20" as="geometry" />
        </mxCell>
        <mxCell id="K9GchK6eYrQeb1Zm0STE-58" value="AD" style="rounded=1;whiteSpace=wrap;html=1;fillColor=#d5e8d4;strokeColor=#82b366;" parent="uaf8l5krwzGRUjpjPeg9-29" vertex="1">
          <mxGeometry x="80" width="40" height="20" as="geometry" />
        </mxCell>
        <mxCell id="K9GchK6eYrQeb1Zm0STE-59" value="AH" style="rounded=1;whiteSpace=wrap;html=1;fillColor=#d5e8d4;strokeColor=#82b366;" parent="uaf8l5krwzGRUjpjPeg9-29" vertex="1">
          <mxGeometry x="40" width="40" height="20" as="geometry" />
        </mxCell>
        <mxCell id="uaf8l5krwzGRUjpjPeg9-30" value="" style="group" vertex="1" connectable="0" parent="1">
          <mxGeometry x="40" y="380" width="80" height="20" as="geometry" />
        </mxCell>
        <mxCell id="K9GchK6eYrQeb1Zm0STE-49" value="VD" style="rounded=1;whiteSpace=wrap;html=1;fillColor=#dae8fc;strokeColor=#6c8ebf;" parent="uaf8l5krwzGRUjpjPeg9-30" vertex="1">
          <mxGeometry x="40" width="40" height="20" as="geometry" />
        </mxCell>
        <mxCell id="K9GchK6eYrQeb1Zm0STE-50" value="VH" style="rounded=1;whiteSpace=wrap;html=1;fillColor=#dae8fc;strokeColor=#6c8ebf;" parent="uaf8l5krwzGRUjpjPeg9-30" vertex="1">
          <mxGeometry width="40" height="20" as="geometry" />
        </mxCell>
      </root>
    </mxGraphModel>
  </diagram>
</mxfile>
